# xmcd
# 
# Track frame offsets:
#     150
#     17025
#     39138
#     53725
# 
# Disc length: 1075
# 
# Revision: 0
# Processed by: cddbd v1.5.2PL0 Copyright (c) Steve Scherf et al.
# Submitted via: BonkEnc v1.0.8
# 
DISCID=23043104
DTITLE=林強 - 娛樂世界 EP
DYEAR=1994
DGENRE=Cindie
TTITLE0=Happy Birthday
TTITLE1=愛情研究院
TTITLE2=看錄影帶
TTITLE3=暗藏
EXTD=
EXTT0=
EXTT1=
EXTT2=
EXTT3=
PLAYORDER=
